<svg width="94" height="94" viewBox="0 0 94 94" fill="none" xmlns="http://www.w3.org/2000/svg">
<g filter="url(#filter0_d)">
<path d="M90 43C90 66.7482 70.7482 86 47 86C23.2518 86 4 66.7482 4 43C4 19.2518 23.2518 0 47 0C70.7482 0 90 19.2518 90 43Z" fill="#0D0D0D"/>
</g>
<path fill-rule="evenodd" clip-rule="evenodd" d="M62.4152 24.3396H31.585C29.7927 24.3396 28.3398 25.7926 28.3398 27.5849V58.4151C28.3398 60.2074 29.7927 61.6604 31.585 61.6604H62.4152C64.2076 61.6604 65.6605 60.2074 65.6605 58.4151V27.5849C65.6605 25.7926 64.2076 24.3396 62.4152 24.3396ZM31.585 21.0943C28.0004 21.0943 25.0945 24.0003 25.0945 27.5849V58.4151C25.0945 61.9997 28.0004 64.9057 31.585 64.9057H62.4152C65.9999 64.9057 68.9058 61.9997 68.9058 58.4151V27.5849C68.9058 24.0003 65.9999 21.0943 62.4152 21.0943H31.585Z" fill="#E6B710"/>
<path d="M75.7896 25.0806C77.2115 26.1717 77.4798 28.209 76.3887 29.6309L56.2774 55.8405C55.1863 57.2624 53.149 57.5306 51.7271 56.4395L36.5464 44.7909C35.1244 43.6998 34.8562 41.6626 35.9473 40.2406L56.0586 14.0311C57.1497 12.6091 59.1869 12.3409 60.6089 13.432L75.7896 25.0806Z" fill="#0D0D0D"/>
<path fill-rule="evenodd" clip-rule="evenodd" d="M77.8045 30.7175L57.6932 56.927C56.002 59.1311 52.8443 59.5468 50.6403 57.8556L35.4596 46.207C33.2556 44.5158 32.8398 41.3581 34.531 39.1541L54.6423 12.9445C56.3335 10.7405 59.4912 10.3248 61.6952 12.016L76.876 23.6646C79.08 25.3558 79.4957 28.5135 77.8045 30.7175ZM76.3885 29.6309C77.4795 28.209 77.2113 26.1717 75.7894 25.0807L60.6087 13.4321C59.1867 12.341 57.1495 12.6092 56.0584 14.0311L35.9471 40.2407C34.856 41.6626 35.1242 43.6998 36.5461 44.7909L51.7269 56.4395C53.1488 57.5306 55.1861 57.2624 56.2772 55.8405L76.3885 29.6309Z" fill="#0D0D0D"/>
<path fill-rule="evenodd" clip-rule="evenodd" d="M62.4856 26.2293L45.1541 45.0051L44.6662 46.9567L46.5161 46.4942L63.9086 27.6524L62.4856 26.2293ZM45.0143 45.1566L45.0134 45.1575L44.4173 44.6072L45.0134 45.1575C45.0137 45.1572 45.014 45.1569 45.0143 45.1566ZM61.2698 23.958L43.2249 43.5066C43.0404 43.7065 42.9091 43.9497 42.8431 44.2136L41.9769 47.6782C41.6798 48.8666 42.7563 49.9431 43.9447 49.646L47.3415 48.7968C47.6482 48.7201 47.9258 48.5555 48.1403 48.3232L66.2258 28.7305C66.8166 28.0905 66.7967 27.0983 66.1809 26.4825L63.6095 23.9112C62.9579 23.2595 61.8949 23.2808 61.2698 23.958Z" fill="#E6B710"/>
<defs>
<filter id="filter0_d" x="0" y="0" width="94" height="94" filterUnits="userSpaceOnUse" color-interpolation-filters="sRGB">
<feFlood flood-opacity="0" result="BackgroundImageFix"/>
<feColorMatrix in="SourceAlpha" type="matrix" values="0 0 0 0 0 0 0 0 0 0 0 0 0 0 0 0 0 0 127 0"/>
<feOffset dy="4"/>
<feGaussianBlur stdDeviation="2"/>
<feColorMatrix type="matrix" values="0 0 0 0 0 0 0 0 0 0 0 0 0 0 0 0 0 0 0.25 0"/>
<feBlend mode="normal" in2="BackgroundImageFix" result="effect1_dropShadow"/>
<feBlend mode="normal" in="SourceGraphic" in2="effect1_dropShadow" result="shape"/>
</filter>
</defs>
</svg>
