<svg width="325" height="108" viewBox="0 0 325 108" fill="none" xmlns="http://www.w3.org/2000/svg">
<g id="logo">
<g id="telloner">
<path d="M20.928 48.04V70.6C20.928 72.136 21.216 73.256 21.792 73.96C22.432 74.6 23.488 74.92 24.96 74.92C25.984 74.92 27.072 74.824 28.224 74.632C29.376 74.44 30.304 74.248 31.008 74.056V84.712C30.688 84.776 30.144 84.872 29.376 85C28.608 85.192 27.744 85.32 26.784 85.384C25.824 85.512 24.832 85.608 23.808 85.672C22.784 85.8 21.824 85.864 20.928 85.864C18.24 85.864 16.064 85.448 14.4 84.616C12.736 83.72 11.424 82.568 10.464 81.16C9.568 79.688 8.96 78.024 8.64 76.168C8.32 74.248 8.16 72.232 8.16 70.12V48.04H1.92V37H8.16V25.48H20.928V37H30.528V48.04H20.928ZM51.135 65.704C51.327 69.224 51.967 71.656 53.055 73C54.207 74.28 56.223 74.92 59.103 74.92C61.791 74.92 64.319 74.76 66.687 74.44C69.119 74.12 71.039 73.8 72.447 73.48V84.232C71.679 84.424 70.719 84.648 69.567 84.904C68.415 85.096 67.199 85.256 65.919 85.384C64.639 85.512 63.391 85.608 62.175 85.672C61.023 85.8 59.999 85.864 59.103 85.864C55.647 85.864 52.607 85.576 49.983 85C47.359 84.424 45.151 83.24 43.359 81.448C41.631 79.656 40.319 77.16 39.423 73.96C38.591 70.696 38.175 66.376 38.175 61C38.175 56.584 38.591 52.808 39.423 49.672C40.319 46.472 41.599 43.88 43.263 41.896C44.991 39.912 47.071 38.472 49.503 37.576C51.935 36.616 54.719 36.136 57.855 36.136C61.503 36.136 64.479 36.616 66.783 37.576C69.151 38.536 71.007 39.944 72.351 41.8C73.695 43.592 74.623 45.832 75.135 48.52C75.711 51.208 75.999 54.248 75.999 57.64V65.704H51.135ZM57.663 46.696C55.679 46.696 54.175 47.4 53.151 48.808C52.191 50.216 51.551 52.712 51.231 56.296H63.711V53.8C63.711 51.432 63.231 49.672 62.271 48.52C61.311 47.304 59.775 46.696 57.663 46.696ZM182.111 60.04C182.111 65.096 181.663 69.288 180.767 72.616C179.871 75.88 178.559 78.504 176.831 80.488C175.103 82.408 172.927 83.752 170.303 84.52C167.743 85.288 164.767 85.672 161.375 85.672C157.983 85.672 155.007 85.288 152.447 84.52C149.887 83.752 147.743 82.408 146.015 80.488C144.287 78.504 142.975 75.88 142.079 72.616C141.247 69.288 140.831 65.096 140.831 60.04C140.831 51.848 142.431 45.864 145.631 42.088C148.895 38.248 154.143 36.328 161.375 36.328C168.607 36.328 173.855 38.248 177.119 42.088C180.447 45.864 182.111 51.848 182.111 60.04ZM169.055 61.48C169.055 58.664 168.927 56.328 168.671 54.472C168.415 52.552 167.967 51.016 167.327 49.864C166.751 48.712 165.983 47.912 165.023 47.464C164.063 46.952 162.847 46.696 161.375 46.696C159.967 46.696 158.783 46.952 157.823 47.464C156.863 47.912 156.095 48.712 155.519 49.864C154.943 51.016 154.527 52.552 154.271 54.472C154.015 56.328 153.887 58.664 153.887 61.48C153.887 64.168 153.983 66.408 154.175 68.2C154.431 69.928 154.847 71.336 155.423 72.424C155.999 73.448 156.767 74.184 157.727 74.632C158.687 75.08 159.903 75.304 161.375 75.304C162.847 75.304 164.063 75.08 165.023 74.632C166.047 74.184 166.847 73.448 167.423 72.424C167.999 71.336 168.415 69.928 168.671 68.2C168.927 66.408 169.055 64.168 169.055 61.48ZM193.178 85V37H203.546L204.41 40.744C205.882 39.336 207.578 38.216 209.498 37.384C211.418 36.552 213.562 36.136 215.93 36.136C219.258 36.136 221.914 36.52 223.898 37.288C225.946 38.056 227.514 39.24 228.602 40.84C229.754 42.44 230.522 44.424 230.906 46.792C231.29 49.16 231.482 51.976 231.482 55.24V85H218.714V54.952C218.714 51.752 218.234 49.672 217.274 48.712C216.378 47.688 215.066 47.176 213.338 47.176C210.906 47.176 209.082 47.88 207.866 49.288C206.714 50.696 206.074 52.232 205.946 53.896V85H193.178ZM255.041 65.704C255.233 69.224 255.873 71.656 256.961 73C258.113 74.28 260.129 74.92 263.009 74.92C265.697 74.92 268.225 74.76 270.593 74.44C273.025 74.12 274.945 73.8 276.353 73.48V84.232C275.585 84.424 274.625 84.648 273.473 84.904C272.321 85.096 271.105 85.256 269.825 85.384C268.545 85.512 267.297 85.608 266.081 85.672C264.929 85.8 263.905 85.864 263.009 85.864C259.553 85.864 256.513 85.576 253.889 85C251.265 84.424 249.057 83.24 247.265 81.448C245.537 79.656 244.225 77.16 243.329 73.96C242.497 70.696 242.081 66.376 242.081 61C242.081 56.584 242.497 52.808 243.329 49.672C244.225 46.472 245.505 43.88 247.169 41.896C248.897 39.912 250.977 38.472 253.409 37.576C255.841 36.616 258.625 36.136 261.761 36.136C265.409 36.136 268.385 36.616 270.689 37.576C273.057 38.536 274.913 39.944 276.257 41.8C277.601 43.592 278.529 45.832 279.041 48.52C279.617 51.208 279.905 54.248 279.905 57.64V65.704H255.041ZM261.569 46.696C259.585 46.696 258.081 47.4 257.057 48.808C256.097 50.216 255.457 52.712 255.137 56.296H267.617V53.8C267.617 51.432 267.137 49.672 266.177 48.52C265.217 47.304 263.681 46.696 261.569 46.696ZM290.49 85V37H300.858L301.818 41.32C303.098 39.784 304.57 38.536 306.234 37.576C307.898 36.616 309.754 36.136 311.802 36.136C313.274 36.136 314.746 36.296 316.218 36.616V49.288C315.386 49.096 314.586 48.968 313.818 48.904C313.114 48.776 312.314 48.712 311.418 48.712C309.818 48.712 308.506 49.128 307.482 49.96C306.458 50.728 305.626 51.784 304.986 53.128C304.346 54.408 303.898 55.88 303.642 57.544C303.386 59.208 303.258 60.904 303.258 62.632V85H290.49Z" fill="black"/>
<path d="M105.784 84.712C105.08 84.84 103.896 85 102.232 85.192C100.632 85.384 98.9038 85.48 97.0478 85.48C93.0798 85.48 90.3278 84.296 88.7918 81.928C87.3198 79.496 86.5838 75.784 86.5838 70.792V17.8H99.3518V70.312C99.3518 71.848 99.5438 72.936 99.9278 73.576C100.312 74.152 101.112 74.44 102.328 74.44C103.032 74.44 103.704 74.408 104.344 74.344C105.048 74.216 105.528 74.12 105.784 74.056V84.712ZM133.628 84.712C132.924 84.84 131.74 85 130.076 85.192C128.476 85.384 126.748 85.48 124.892 85.48C120.924 85.48 118.172 84.296 116.636 81.928C115.164 79.496 114.428 75.784 114.428 70.792V17.8H127.196V70.312C127.196 71.848 127.388 72.936 127.772 73.576C128.156 74.152 128.956 74.44 130.172 74.44C130.876 74.44 131.548 74.408 132.188 74.344C132.892 74.216 133.372 74.12 133.628 74.056V84.712Z" fill="#FF0086"/>
</g>
<path id="by barek" d="M270.812 98.924C270.812 99.908 270.746 100.736 270.614 101.408C270.482 102.068 270.266 102.602 269.966 103.01C269.666 103.406 269.27 103.694 268.778 103.874C268.298 104.042 267.698 104.126 266.978 104.126C266.654 104.126 266.372 104.12 266.132 104.108C265.892 104.096 265.67 104.078 265.466 104.054C265.274 104.03 265.094 104.006 264.926 103.982C264.77 103.958 264.608 103.934 264.44 103.91V91.4H265.97V95.666C266.534 95.138 267.2 94.874 267.968 94.874C269.024 94.874 269.762 95.216 270.182 95.9C270.602 96.572 270.812 97.58 270.812 98.924ZM267.68 96.17C267.428 96.17 267.194 96.218 266.978 96.314C266.774 96.41 266.594 96.536 266.438 96.692C266.294 96.848 266.18 97.016 266.096 97.196C266.012 97.364 265.97 97.532 265.97 97.7V102.758C266.102 102.782 266.264 102.8 266.456 102.812C266.648 102.824 266.882 102.83 267.158 102.83C267.59 102.83 267.938 102.752 268.202 102.596C268.478 102.44 268.688 102.206 268.832 101.894C268.988 101.582 269.096 101.198 269.156 100.742C269.216 100.274 269.246 99.728 269.246 99.104C269.246 98.528 269.216 98.054 269.156 97.682C269.108 97.31 269.018 97.01 268.886 96.782C268.766 96.554 268.604 96.398 268.4 96.314C268.208 96.218 267.968 96.17 267.68 96.17ZM276.813 104.792C276.717 105.14 276.615 105.458 276.507 105.746C276.399 106.046 276.261 106.298 276.093 106.502C275.937 106.706 275.733 106.862 275.481 106.97C275.241 107.09 274.941 107.15 274.581 107.15C274.389 107.15 274.197 107.138 274.005 107.114C273.813 107.09 273.663 107.066 273.555 107.042V105.728C273.687 105.752 273.831 105.77 273.987 105.782C274.143 105.794 274.311 105.8 274.491 105.8C274.827 105.8 275.067 105.53 275.211 104.99L275.499 104H275.139L272.349 95H274.005L276.093 102.434L277.857 95H279.423L276.813 104.792ZM292.539 98.924C292.539 99.908 292.473 100.736 292.341 101.408C292.209 102.068 291.993 102.602 291.693 103.01C291.393 103.406 290.997 103.694 290.505 103.874C290.025 104.042 289.425 104.126 288.705 104.126C288.381 104.126 288.099 104.12 287.859 104.108C287.619 104.096 287.397 104.078 287.193 104.054C287.001 104.03 286.821 104.006 286.653 103.982C286.497 103.958 286.335 103.934 286.167 103.91V91.4H287.697V95.666C288.261 95.138 288.927 94.874 289.695 94.874C290.751 94.874 291.489 95.216 291.909 95.9C292.329 96.572 292.539 97.58 292.539 98.924ZM289.407 96.17C289.155 96.17 288.921 96.218 288.705 96.314C288.501 96.41 288.321 96.536 288.165 96.692C288.021 96.848 287.907 97.016 287.823 97.196C287.739 97.364 287.697 97.532 287.697 97.7V102.758C287.829 102.782 287.991 102.8 288.183 102.812C288.375 102.824 288.609 102.83 288.885 102.83C289.317 102.83 289.665 102.752 289.929 102.596C290.205 102.44 290.415 102.206 290.559 101.894C290.715 101.582 290.823 101.198 290.883 100.742C290.943 100.274 290.973 99.728 290.973 99.104C290.973 98.528 290.943 98.054 290.883 97.682C290.835 97.31 290.745 97.01 290.613 96.782C290.493 96.554 290.331 96.398 290.127 96.314C289.935 96.218 289.695 96.17 289.407 96.17ZM301.017 104C300.933 104 300.825 103.988 300.693 103.964C300.573 103.94 300.447 103.898 300.315 103.838C300.183 103.778 300.057 103.688 299.937 103.568C299.829 103.448 299.739 103.298 299.667 103.118C299.439 103.442 299.139 103.694 298.767 103.874C298.395 104.042 297.903 104.126 297.291 104.126C296.967 104.126 296.643 104.09 296.319 104.018C295.995 103.958 295.707 103.832 295.455 103.64C295.203 103.436 294.999 103.16 294.843 102.812C294.687 102.464 294.609 102.014 294.609 101.462C294.609 100.49 294.891 99.746 295.455 99.23C296.019 98.714 296.805 98.456 297.813 98.456H299.235V97.484C299.235 97.1 299.121 96.788 298.893 96.548C298.677 96.296 298.341 96.17 297.885 96.17C297.369 96.17 296.919 96.2 296.535 96.26C296.151 96.32 295.731 96.416 295.275 96.548V95.234C295.611 95.138 295.989 95.054 296.409 94.982C296.829 94.91 297.261 94.874 297.705 94.874C298.293 94.874 298.779 94.934 299.163 95.054C299.559 95.162 299.871 95.342 300.099 95.594C300.339 95.834 300.507 96.14 300.603 96.512C300.711 96.884 300.765 97.328 300.765 97.844V102.164C300.765 102.344 300.825 102.488 300.945 102.596C301.065 102.692 301.269 102.74 301.557 102.74V104H301.017ZM297.651 102.83C297.963 102.83 298.221 102.782 298.425 102.686C298.629 102.59 298.791 102.476 298.911 102.344C299.031 102.2 299.115 102.056 299.163 101.912C299.211 101.768 299.235 101.654 299.235 101.57V99.68H297.723C297.531 99.68 297.339 99.71 297.147 99.77C296.967 99.83 296.805 99.932 296.661 100.076C296.517 100.208 296.397 100.382 296.301 100.598C296.217 100.802 296.175 101.054 296.175 101.354C296.175 101.918 296.301 102.308 296.553 102.524C296.805 102.728 297.171 102.83 297.651 102.83ZM303.815 104V95H305.075L305.183 95.918C305.387 95.606 305.639 95.354 305.939 95.162C306.239 94.97 306.611 94.874 307.055 94.874C307.271 94.874 307.457 94.886 307.613 94.91C307.769 94.922 307.901 94.94 308.009 94.964V96.566C307.853 96.53 307.673 96.494 307.469 96.458C307.277 96.422 307.097 96.404 306.929 96.404C306.629 96.404 306.377 96.464 306.173 96.584C305.981 96.704 305.819 96.866 305.687 97.07C305.567 97.262 305.477 97.484 305.417 97.736C305.369 97.976 305.345 98.216 305.345 98.456V104H303.815ZM310.893 100.04C310.905 100.628 310.947 101.108 311.019 101.48C311.103 101.84 311.211 102.122 311.343 102.326C311.475 102.53 311.631 102.668 311.811 102.74C311.991 102.8 312.195 102.83 312.423 102.83C312.927 102.83 313.383 102.8 313.791 102.74C314.211 102.668 314.559 102.602 314.835 102.542V103.838C314.547 103.922 314.181 103.988 313.737 104.036C313.305 104.096 312.927 104.126 312.603 104.126C312.087 104.126 311.625 104.072 311.217 103.964C310.821 103.856 310.485 103.64 310.209 103.316C309.933 102.992 309.723 102.53 309.579 101.93C309.435 101.318 309.363 100.508 309.363 99.5C309.363 98.672 309.429 97.964 309.561 97.376C309.705 96.788 309.915 96.308 310.191 95.936C310.467 95.564 310.809 95.294 311.217 95.126C311.625 94.958 312.099 94.874 312.639 94.874C313.671 94.874 314.409 95.216 314.853 95.9C315.309 96.572 315.537 97.502 315.537 98.69V100.04H310.893ZM312.603 96.152C312.315 96.152 312.069 96.194 311.865 96.278C311.661 96.362 311.493 96.506 311.361 96.71C311.229 96.914 311.127 97.19 311.055 97.538C310.983 97.874 310.935 98.3 310.911 98.816H314.043V98.33C314.043 97.646 313.935 97.112 313.719 96.728C313.515 96.344 313.143 96.152 312.603 96.152ZM322.553 104L320.123 99.518L319.583 100.148V104H318.053V91.4H319.583V98.24L322.337 95H324.209L321.167 98.474L324.335 104H322.553Z" fill="black"/>
</g>
</svg>
