<svg width="20" height="20" viewBox="0 0 20 20" fill="none" xmlns="http://www.w3.org/2000/svg">
<path d="M16.9133 9.80026C16.9133 13.6663 13.7793 16.8003 9.91333 16.8003C6.04734 16.8003 2.91333 13.6663 2.91333 9.80026C2.91333 5.93427 6.04734 2.80026 9.91333 2.80026C13.7793 2.80026 16.9133 5.93427 16.9133 9.80026ZM5.06428 9.80026C5.06428 12.4783 7.23527 14.6493 9.91333 14.6493C12.5914 14.6493 14.7624 12.4783 14.7624 9.80026C14.7624 7.12221 12.5914 4.95121 9.91333 4.95121C7.23527 4.95121 5.06428 7.12221 5.06428 9.80026Z" fill="#1A222F"/>
<path d="M8.08081 0.999452C8.08081 0.447167 8.52853 -0.000549316 9.08081 -0.000549316H10.746C11.2983 -0.000549316 11.746 0.447166 11.746 0.999451V3.28544H8.08081V0.999452Z" fill="#1A222F"/>
<path d="M15.1984 2.62682C15.5889 2.23629 16.2221 2.23629 16.6126 2.62682L17.7901 3.80427C18.1806 4.1948 18.1806 4.82796 17.7901 5.21848L16.1736 6.83492L13.582 4.24326L15.1984 2.62682Z" fill="#1A222F"/>
<path d="M16.5359 11.6466V7.98146H18.8219C19.3742 7.98146 19.8219 8.42918 19.8219 8.98146V10.6466C19.8219 11.1989 19.3742 11.6466 18.8219 11.6466H16.5359Z" fill="#1A222F"/>
<path d="M1 11.6466C0.447716 11.6466 0 11.1989 0 10.6466L0 8.98146C0 8.42918 0.447715 7.98146 1 7.98146H3.28599L3.28599 11.6466H1Z" fill="#1A222F"/>
<path d="M2.77312 2.76088C3.16364 2.37036 3.79681 2.37035 4.18733 2.76088L6.07189 4.64544L3.74835 6.96899L1.86378 5.08443C1.47326 4.6939 1.47326 4.06074 1.86378 3.67021L2.77312 2.76088Z" fill="#1A222F"/>
<path d="M11.4917 18.4672C11.4917 19.0195 11.044 19.4672 10.4917 19.4672H8.82653C8.27424 19.4672 7.82653 19.0195 7.82653 18.4672L7.82653 16.1812H11.4917L11.4917 18.4672Z" fill="#1A222F"/>
<path d="M4.58968 16.9996C4.19915 17.3901 3.56599 17.3901 3.17546 16.9996L1.99801 15.8221C1.60748 15.4316 1.60748 14.7984 1.99801 14.4079L3.61445 12.7915L6.20612 15.3831L4.58968 16.9996Z" fill="#1A222F"/>
<path d="M16.8809 16.9996C16.4904 17.3901 15.8572 17.3901 15.4667 16.9996L13.5822 15.115L15.9057 12.7915L17.7903 14.676C18.1808 15.0666 18.1808 15.6997 17.7903 16.0903L16.8809 16.9996Z" fill="#1A222F"/>
</svg>
