<svg width="64" height="64" viewBox="0 0 64 64" fill="none" xmlns="http://www.w3.org/2000/svg">
<g filter="url(#filter0_d)">
<path d="M59.259 28.2224C59.259 43.4102 46.9468 55.7224 31.759 55.7224C16.5712 55.7224 4.259 43.4102 4.259 28.2224C4.259 13.0345 16.5712 0.722351 31.759 0.722351C46.9468 0.722351 59.259 13.0345 59.259 28.2224Z" fill="#E5B710"/>
</g>
<path d="M21.9006 16.7884H41.6176C42.4877 16.7884 43.1931 17.4938 43.1931 18.3639V38.0809C43.1931 38.951 42.4877 39.6563 41.6176 39.6563H21.9006C21.0305 39.6563 20.3251 38.951 20.3251 38.0809V18.3639C20.3251 17.4938 21.0305 16.7884 21.9006 16.7884ZM21.9006 13.713C19.332 13.713 17.2497 15.7952 17.2497 18.3639V38.0809C17.2497 40.6495 19.332 42.7318 21.9006 42.7318H41.6176C44.1862 42.7318 46.2685 40.6495 46.2685 38.0809V18.3639C46.2685 15.7953 44.1862 13.713 41.6176 13.713L21.9006 13.713Z" fill="black" stroke="black"/>
<path d="M50.171 16.7623C51.0803 17.4601 51.2519 18.763 50.5541 19.6723L37.6922 36.4343C36.9944 37.3436 35.6915 37.5152 34.7821 36.8174L25.0735 29.3677C24.1641 28.6699 23.9926 27.367 24.6904 26.4576L37.5523 9.69572C38.2501 8.78634 39.553 8.61481 40.4623 9.31261L50.171 16.7623Z" fill="#E5B710"/>
<path fill-rule="evenodd" clip-rule="evenodd" d="M51.4595 20.3673L38.5977 37.1292C37.5161 38.5387 35.4966 38.8046 34.0871 37.723L24.3785 30.2733C22.9689 29.1918 22.7031 27.1723 23.7846 25.7628L36.6465 9.00083C37.7281 7.59129 39.7475 7.32543 41.1571 8.40701L50.8657 15.8567C52.2752 16.9383 52.5411 18.9577 51.4595 20.3673ZM50.5539 19.6724C51.2517 18.763 51.0802 17.4601 50.1708 16.7623L40.4622 9.31263C39.5528 8.61483 38.2499 8.78636 37.5521 9.69574L24.6903 26.4577C23.9925 27.367 24.164 28.6699 25.0734 29.3677L34.782 36.8174C35.6914 37.5152 36.9942 37.3437 37.692 36.4343L50.5539 19.6724Z" fill="#E5B710"/>
<path d="M31.0325 29.75L41.677 18.2185L41.8794 18.4209L31.1834 30.0082L30.9536 30.0656L31.0325 29.75ZM40.5176 15.7052L40.5176 15.7052L28.9773 28.2072C28.8024 28.3967 28.6779 28.6271 28.6154 28.8773L28.0615 31.093C27.7799 32.2192 28.8 33.2393 29.9263 32.9578L32.0986 32.4147C32.3893 32.342 32.6524 32.186 32.8556 31.9659L44.422 19.4357C44.9818 18.8292 44.963 17.8889 44.3794 17.3053L42.7349 15.6608C42.1173 15.0433 41.11 15.0634 40.5176 15.7052Z" fill="black" stroke="black"/>
<defs>
<filter id="filter0_d" x="0.259003" y="0.722351" width="63" height="63" filterUnits="userSpaceOnUse" color-interpolation-filters="sRGB">
<feFlood flood-opacity="0" result="BackgroundImageFix"/>
<feColorMatrix in="SourceAlpha" type="matrix" values="0 0 0 0 0 0 0 0 0 0 0 0 0 0 0 0 0 0 127 0"/>
<feOffset dy="4"/>
<feGaussianBlur stdDeviation="2"/>
<feColorMatrix type="matrix" values="0 0 0 0 0 0 0 0 0 0 0 0 0 0 0 0 0 0 0.25 0"/>
<feBlend mode="normal" in2="BackgroundImageFix" result="effect1_dropShadow"/>
<feBlend mode="normal" in="SourceGraphic" in2="effect1_dropShadow" result="shape"/>
</filter>
</defs>
</svg>
