<svg width="10" height="9" viewBox="0 0 10 9" fill="none" xmlns="http://www.w3.org/2000/svg">
<path d="M8.375 3.375H8V2.25C8 1.00912 6.6545 0 5 0C3.3455 0 2 1.00912 2 2.25V3.375H1.625C1.005 3.375 0.5 3.75338 0.5 4.21875V8.15625C0.5 8.62162 1.005 9 1.625 9H8.375C8.995 9 9.5 8.62162 9.5 8.15625V4.21875C9.5 3.75338 8.995 3.375 8.375 3.375ZM3 2.25C3 1.42275 3.897 0.75 5 0.75C6.103 0.75 7 1.42275 7 2.25V3.375H3V2.25ZM5.5 6.27075V7.125C5.5 7.332 5.2765 7.5 5 7.5C4.7235 7.5 4.5 7.332 4.5 7.125V6.27075C4.2025 6.14062 4 5.90137 4 5.625C4 5.21137 4.4485 4.875 5 4.875C5.5515 4.875 6 5.21137 6 5.625C6 5.90137 5.7975 6.14062 5.5 6.27075Z" fill="black"/>
</svg>
