<svg width="35" height="35" viewBox="0 0 35 35" fill="none" xmlns="http://www.w3.org/2000/svg">
<g clip-path="url(#clip0)">
<path fill-rule="evenodd" clip-rule="evenodd" d="M17.4987 2.18831C7.83347 2.18831 -4.01664e-06 8.55171 -4.01664e-06 16.4058C-4.01664e-06 19.6586 1.35897 22.6401 3.61703 25.0376C2.59651 27.7323 0.477962 30.0137 0.444375 30.0421C-0.00775483 30.52 -0.129184 31.2176 0.129176 31.8196C0.390119 32.4216 0.984347 32.8091 1.64058 32.8091C5.84409 32.8091 9.15885 31.0523 11.1482 29.6442C13.1247 30.2668 15.2561 30.6234 17.4987 30.6234C27.1639 30.6234 34.9974 24.26 34.9974 16.4058C34.9974 8.55171 27.1639 2.18831 17.4987 2.18831ZM17.4987 27.3422C15.6747 27.3422 13.8688 27.0606 12.1403 26.5155L10.5876 26.022L9.25444 26.965C8.27784 27.6574 6.93696 28.4273 5.32479 28.9492C5.82343 28.1199 6.30914 27.1924 6.68376 26.2003L7.40976 24.2807L6.00169 22.7899C4.76415 21.4697 3.28117 19.2891 3.28117 16.4058C3.28117 10.3757 9.65749 5.46948 17.4987 5.46948C25.3399 5.46948 31.7162 10.3757 31.7162 16.4058C31.7162 22.4334 25.3399 27.3422 17.4987 27.3422Z" fill="#929292"/>
</g>
<defs>
<clipPath id="clip0">
<rect width="35" height="35" fill="white"/>
</clipPath>
</defs>
</svg>
