<svg width="325" height="109" viewBox="0 0 325 109" fill="none" xmlns="http://www.w3.org/2000/svg">
<g id="logo">
<g id="telloner">
<path d="M20.928 49.0059V71.5659C20.928 73.1019 21.216 74.2219 21.792 74.9259C22.432 75.5659 23.488 75.8859 24.96 75.8859C25.984 75.8859 27.072 75.7899 28.224 75.5979C29.376 75.4059 30.304 75.2139 31.008 75.0219V85.6779C30.688 85.7419 30.144 85.8379 29.376 85.9659C28.608 86.1579 27.744 86.2859 26.784 86.3499C25.824 86.4779 24.832 86.5739 23.808 86.6379C22.784 86.7659 21.824 86.8299 20.928 86.8299C18.24 86.8299 16.064 86.4139 14.4 85.5819C12.736 84.6859 11.424 83.5339 10.464 82.1259C9.568 80.6539 8.96 78.9899 8.64 77.1339C8.32 75.2139 8.16 73.1979 8.16 71.0859V49.0059H1.92V37.9659H8.16V26.4459H20.928V37.9659H30.528V49.0059H20.928ZM51.135 66.6699C51.327 70.1899 51.967 72.6219 53.055 73.9659C54.207 75.2459 56.223 75.8859 59.103 75.8859C61.791 75.8859 64.319 75.7259 66.687 75.4059C69.119 75.0859 71.039 74.7659 72.447 74.4459V85.1979C71.679 85.3899 70.719 85.6139 69.567 85.8699C68.415 86.0619 67.199 86.2219 65.919 86.3499C64.639 86.4779 63.391 86.5739 62.175 86.6379C61.023 86.7659 59.999 86.8299 59.103 86.8299C55.647 86.8299 52.607 86.5419 49.983 85.9659C47.359 85.3899 45.151 84.2059 43.359 82.4139C41.631 80.6219 40.319 78.1259 39.423 74.9259C38.591 71.6619 38.175 67.3419 38.175 61.9659C38.175 57.5499 38.591 53.7739 39.423 50.6379C40.319 47.4379 41.599 44.8459 43.263 42.8619C44.991 40.8779 47.071 39.4379 49.503 38.5419C51.935 37.5819 54.719 37.1019 57.855 37.1019C61.503 37.1019 64.479 37.5819 66.783 38.5419C69.151 39.5019 71.007 40.9099 72.351 42.7659C73.695 44.5579 74.623 46.7979 75.135 49.4859C75.711 52.1739 75.999 55.2139 75.999 58.6059V66.6699H51.135ZM57.663 47.6619C55.679 47.6619 54.175 48.3659 53.151 49.7739C52.191 51.1819 51.551 53.6779 51.231 57.2619H63.711V54.7659C63.711 52.3979 63.231 50.6379 62.271 49.4859C61.311 48.2699 59.775 47.6619 57.663 47.6619ZM182.111 61.0059C182.111 66.0619 181.663 70.2539 180.767 73.5819C179.871 76.8459 178.559 79.4699 176.831 81.4539C175.103 83.3739 172.927 84.7179 170.303 85.4859C167.743 86.2539 164.767 86.6379 161.375 86.6379C157.983 86.6379 155.007 86.2539 152.447 85.4859C149.887 84.7179 147.743 83.3739 146.015 81.4539C144.287 79.4699 142.975 76.8459 142.079 73.5819C141.247 70.2539 140.831 66.0619 140.831 61.0059C140.831 52.8139 142.431 46.8299 145.631 43.0539C148.895 39.2139 154.143 37.2939 161.375 37.2939C168.607 37.2939 173.855 39.2139 177.119 43.0539C180.447 46.8299 182.111 52.8139 182.111 61.0059ZM169.055 62.4459C169.055 59.6299 168.927 57.2939 168.671 55.4379C168.415 53.5179 167.967 51.9819 167.327 50.8299C166.751 49.6779 165.983 48.8779 165.023 48.4299C164.063 47.9179 162.847 47.6619 161.375 47.6619C159.967 47.6619 158.783 47.9179 157.823 48.4299C156.863 48.8779 156.095 49.6779 155.519 50.8299C154.943 51.9819 154.527 53.5179 154.271 55.4379C154.015 57.2939 153.887 59.6299 153.887 62.4459C153.887 65.1339 153.983 67.3739 154.175 69.1659C154.431 70.8939 154.847 72.3019 155.423 73.3899C155.999 74.4139 156.767 75.1499 157.727 75.5979C158.687 76.0459 159.903 76.2699 161.375 76.2699C162.847 76.2699 164.063 76.0459 165.023 75.5979C166.047 75.1499 166.847 74.4139 167.423 73.3899C167.999 72.3019 168.415 70.8939 168.671 69.1659C168.927 67.3739 169.055 65.1339 169.055 62.4459ZM193.178 85.9659V37.9659H203.546L204.41 41.7099C205.882 40.3019 207.578 39.1819 209.498 38.3499C211.418 37.5179 213.562 37.1019 215.93 37.1019C219.258 37.1019 221.914 37.4859 223.898 38.2539C225.946 39.0219 227.514 40.2059 228.602 41.8059C229.754 43.4059 230.522 45.3899 230.906 47.7579C231.29 50.1259 231.482 52.9419 231.482 56.2059V85.9659H218.714V55.9179C218.714 52.7179 218.234 50.6379 217.274 49.6779C216.378 48.6539 215.066 48.1419 213.338 48.1419C210.906 48.1419 209.082 48.8459 207.866 50.2539C206.714 51.6619 206.074 53.1979 205.946 54.8619V85.9659H193.178ZM255.041 66.6699C255.233 70.1899 255.873 72.6219 256.961 73.9659C258.113 75.2459 260.129 75.8859 263.009 75.8859C265.697 75.8859 268.225 75.7259 270.593 75.4059C273.025 75.0859 274.945 74.7659 276.353 74.4459V85.1979C275.585 85.3899 274.625 85.6139 273.473 85.8699C272.321 86.0619 271.105 86.2219 269.825 86.3499C268.545 86.4779 267.297 86.5739 266.081 86.6379C264.929 86.7659 263.905 86.8299 263.009 86.8299C259.553 86.8299 256.513 86.5419 253.889 85.9659C251.265 85.3899 249.057 84.2059 247.265 82.4139C245.537 80.6219 244.225 78.1259 243.329 74.9259C242.497 71.6619 242.081 67.3419 242.081 61.9659C242.081 57.5499 242.497 53.7739 243.329 50.6379C244.225 47.4379 245.505 44.8459 247.169 42.8619C248.897 40.8779 250.977 39.4379 253.409 38.5419C255.841 37.5819 258.625 37.1019 261.761 37.1019C265.409 37.1019 268.385 37.5819 270.689 38.5419C273.057 39.5019 274.913 40.9099 276.257 42.7659C277.601 44.5579 278.529 46.7979 279.041 49.4859C279.617 52.1739 279.905 55.2139 279.905 58.6059V66.6699H255.041ZM261.569 47.6619C259.585 47.6619 258.081 48.3659 257.057 49.7739C256.097 51.1819 255.457 53.6779 255.137 57.2619H267.617V54.7659C267.617 52.3979 267.137 50.6379 266.177 49.4859C265.217 48.2699 263.681 47.6619 261.569 47.6619ZM290.49 85.9659V37.9659H300.858L301.818 42.2859C303.098 40.7499 304.57 39.5019 306.234 38.5419C307.898 37.5819 309.754 37.1019 311.802 37.1019C313.274 37.1019 314.746 37.2619 316.218 37.5819V50.2539C315.386 50.0619 314.586 49.9339 313.818 49.8699C313.114 49.7419 312.314 49.6779 311.418 49.6779C309.818 49.6779 308.506 50.0939 307.482 50.9259C306.458 51.6939 305.626 52.7499 304.986 54.0939C304.346 55.3739 303.898 56.8459 303.642 58.5099C303.386 60.1739 303.258 61.8699 303.258 63.5979V85.9659H290.49Z" fill="white"/>
<path d="M105.784 85.6779C105.08 85.8059 103.896 85.9659 102.232 86.1579C100.632 86.3499 98.9038 86.4459 97.0478 86.4459C93.0798 86.4459 90.3278 85.2619 88.7918 82.8939C87.3198 80.4619 86.5838 76.7499 86.5838 71.7579V18.7659H99.3518V71.2779C99.3518 72.8139 99.5438 73.9019 99.9278 74.5419C100.312 75.1179 101.112 75.4059 102.328 75.4059C103.032 75.4059 103.704 75.3739 104.344 75.3099C105.048 75.1819 105.528 75.0859 105.784 75.0219V85.6779ZM133.628 85.6779C132.924 85.8059 131.74 85.9659 130.076 86.1579C128.476 86.3499 126.748 86.4459 124.892 86.4459C120.924 86.4459 118.172 85.2619 116.636 82.8939C115.164 80.4619 114.428 76.7499 114.428 71.7579V18.7659H127.196V71.2779C127.196 72.8139 127.388 73.9019 127.772 74.5419C128.156 75.1179 128.956 75.4059 130.172 75.4059C130.876 75.4059 131.548 75.3739 132.188 75.3099C132.892 75.1819 133.372 75.0859 133.628 75.0219V85.6779Z" fill="#FF0086"/>
</g>
<path id="by barek" d="M270.812 99.8899C270.812 100.874 270.746 101.702 270.614 102.374C270.482 103.034 270.266 103.568 269.966 103.976C269.666 104.372 269.27 104.66 268.778 104.84C268.298 105.008 267.698 105.092 266.978 105.092C266.654 105.092 266.372 105.086 266.132 105.074C265.892 105.062 265.67 105.044 265.466 105.02C265.274 104.996 265.094 104.972 264.926 104.948C264.77 104.924 264.608 104.9 264.44 104.876V92.3659H265.97V96.6319C266.534 96.1039 267.2 95.8399 267.968 95.8399C269.024 95.8399 269.762 96.1819 270.182 96.8659C270.602 97.5379 270.812 98.5459 270.812 99.8899ZM267.68 97.1359C267.428 97.1359 267.194 97.1839 266.978 97.2799C266.774 97.3759 266.594 97.5019 266.438 97.6579C266.294 97.8139 266.18 97.9819 266.096 98.1619C266.012 98.3299 265.97 98.4979 265.97 98.6659V103.724C266.102 103.748 266.264 103.766 266.456 103.778C266.648 103.79 266.882 103.796 267.158 103.796C267.59 103.796 267.938 103.718 268.202 103.562C268.478 103.406 268.688 103.172 268.832 102.86C268.988 102.548 269.096 102.164 269.156 101.708C269.216 101.24 269.246 100.694 269.246 100.07C269.246 99.4939 269.216 99.0199 269.156 98.6479C269.108 98.2759 269.018 97.9759 268.886 97.7479C268.766 97.5199 268.604 97.3639 268.4 97.2799C268.208 97.1839 267.968 97.1359 267.68 97.1359ZM276.813 105.758C276.717 106.106 276.615 106.424 276.507 106.712C276.399 107.012 276.261 107.264 276.093 107.468C275.937 107.672 275.733 107.828 275.481 107.936C275.241 108.056 274.941 108.116 274.581 108.116C274.389 108.116 274.197 108.104 274.005 108.08C273.813 108.056 273.663 108.032 273.555 108.008V106.694C273.687 106.718 273.831 106.736 273.987 106.748C274.143 106.76 274.311 106.766 274.491 106.766C274.827 106.766 275.067 106.496 275.211 105.956L275.499 104.966H275.139L272.349 95.9659H274.005L276.093 103.4L277.857 95.9659H279.423L276.813 105.758ZM292.539 99.8899C292.539 100.874 292.473 101.702 292.341 102.374C292.209 103.034 291.993 103.568 291.693 103.976C291.393 104.372 290.997 104.66 290.505 104.84C290.025 105.008 289.425 105.092 288.705 105.092C288.381 105.092 288.099 105.086 287.859 105.074C287.619 105.062 287.397 105.044 287.193 105.02C287.001 104.996 286.821 104.972 286.653 104.948C286.497 104.924 286.335 104.9 286.167 104.876V92.3659H287.697V96.6319C288.261 96.1039 288.927 95.8399 289.695 95.8399C290.751 95.8399 291.489 96.1819 291.909 96.8659C292.329 97.5379 292.539 98.5459 292.539 99.8899ZM289.407 97.1359C289.155 97.1359 288.921 97.1839 288.705 97.2799C288.501 97.3759 288.321 97.5019 288.165 97.6579C288.021 97.8139 287.907 97.9819 287.823 98.1619C287.739 98.3299 287.697 98.4979 287.697 98.6659V103.724C287.829 103.748 287.991 103.766 288.183 103.778C288.375 103.79 288.609 103.796 288.885 103.796C289.317 103.796 289.665 103.718 289.929 103.562C290.205 103.406 290.415 103.172 290.559 102.86C290.715 102.548 290.823 102.164 290.883 101.708C290.943 101.24 290.973 100.694 290.973 100.07C290.973 99.4939 290.943 99.0199 290.883 98.6479C290.835 98.2759 290.745 97.9759 290.613 97.7479C290.493 97.5199 290.331 97.3639 290.127 97.2799C289.935 97.1839 289.695 97.1359 289.407 97.1359ZM301.017 104.966C300.933 104.966 300.825 104.954 300.693 104.93C300.573 104.906 300.447 104.864 300.315 104.804C300.183 104.744 300.057 104.654 299.937 104.534C299.829 104.414 299.739 104.264 299.667 104.084C299.439 104.408 299.139 104.66 298.767 104.84C298.395 105.008 297.903 105.092 297.291 105.092C296.967 105.092 296.643 105.056 296.319 104.984C295.995 104.924 295.707 104.798 295.455 104.606C295.203 104.402 294.999 104.126 294.843 103.778C294.687 103.43 294.609 102.98 294.609 102.428C294.609 101.456 294.891 100.712 295.455 100.196C296.019 99.6799 296.805 99.4219 297.813 99.4219H299.235V98.4499C299.235 98.0659 299.121 97.7539 298.893 97.5139C298.677 97.2619 298.341 97.1359 297.885 97.1359C297.369 97.1359 296.919 97.1659 296.535 97.2259C296.151 97.2859 295.731 97.3819 295.275 97.5139V96.1999C295.611 96.1039 295.989 96.0199 296.409 95.9479C296.829 95.8759 297.261 95.8399 297.705 95.8399C298.293 95.8399 298.779 95.8999 299.163 96.0199C299.559 96.1279 299.871 96.3079 300.099 96.5599C300.339 96.7999 300.507 97.1059 300.603 97.4779C300.711 97.8499 300.765 98.2939 300.765 98.8099V103.13C300.765 103.31 300.825 103.454 300.945 103.562C301.065 103.658 301.269 103.706 301.557 103.706V104.966H301.017ZM297.651 103.796C297.963 103.796 298.221 103.748 298.425 103.652C298.629 103.556 298.791 103.442 298.911 103.31C299.031 103.166 299.115 103.022 299.163 102.878C299.211 102.734 299.235 102.62 299.235 102.536V100.646H297.723C297.531 100.646 297.339 100.676 297.147 100.736C296.967 100.796 296.805 100.898 296.661 101.042C296.517 101.174 296.397 101.348 296.301 101.564C296.217 101.768 296.175 102.02 296.175 102.32C296.175 102.884 296.301 103.274 296.553 103.49C296.805 103.694 297.171 103.796 297.651 103.796ZM303.815 104.966V95.9659H305.075L305.183 96.8839C305.387 96.5719 305.639 96.3199 305.939 96.1279C306.239 95.9359 306.611 95.8399 307.055 95.8399C307.271 95.8399 307.457 95.8519 307.613 95.8759C307.769 95.8879 307.901 95.9059 308.009 95.9299V97.5319C307.853 97.4959 307.673 97.4599 307.469 97.4239C307.277 97.3879 307.097 97.3699 306.929 97.3699C306.629 97.3699 306.377 97.4299 306.173 97.5499C305.981 97.6699 305.819 97.8319 305.687 98.0359C305.567 98.2279 305.477 98.4499 305.417 98.7019C305.369 98.9419 305.345 99.1819 305.345 99.4219V104.966H303.815ZM310.893 101.006C310.905 101.594 310.947 102.074 311.019 102.446C311.103 102.806 311.211 103.088 311.343 103.292C311.475 103.496 311.631 103.634 311.811 103.706C311.991 103.766 312.195 103.796 312.423 103.796C312.927 103.796 313.383 103.766 313.791 103.706C314.211 103.634 314.559 103.568 314.835 103.508V104.804C314.547 104.888 314.181 104.954 313.737 105.002C313.305 105.062 312.927 105.092 312.603 105.092C312.087 105.092 311.625 105.038 311.217 104.93C310.821 104.822 310.485 104.606 310.209 104.282C309.933 103.958 309.723 103.496 309.579 102.896C309.435 102.284 309.363 101.474 309.363 100.466C309.363 99.6379 309.429 98.9299 309.561 98.3419C309.705 97.7539 309.915 97.2739 310.191 96.9019C310.467 96.5299 310.809 96.2599 311.217 96.0919C311.625 95.9239 312.099 95.8399 312.639 95.8399C313.671 95.8399 314.409 96.1819 314.853 96.8659C315.309 97.5379 315.537 98.4679 315.537 99.6559V101.006H310.893ZM312.603 97.1179C312.315 97.1179 312.069 97.1599 311.865 97.2439C311.661 97.3279 311.493 97.4719 311.361 97.6759C311.229 97.8799 311.127 98.1559 311.055 98.5039C310.983 98.8399 310.935 99.2659 310.911 99.7819H314.043V99.2959C314.043 98.6119 313.935 98.0779 313.719 97.6939C313.515 97.3099 313.143 97.1179 312.603 97.1179ZM322.553 104.966L320.123 100.484L319.583 101.114V104.966H318.053V92.3659H319.583V99.2059L322.337 95.9659H324.209L321.167 99.4399L324.335 104.966H322.553Z" fill="white"/>
</g>
</svg>
